<?xml version="1.0" encoding="utf-8"?><svg xmlns="http://www.w3.org/2000/svg" xmlns:xlink="http://www.w3.org/1999/xlink"><symbol viewBox="0 0 24 24" id="dribbble" xmlns="http://www.w3.org/2000/svg"><path clip-rule="evenodd" d="M12 2a10 10 0 100 20 10 10 0 000-20zm6.61 4.61a8.26 8.26 0 011.93 5.32 20.692 20.692 0 00-5.93-.29c-.07-.14-.11-.28-.18-.43-.18-.39-.36-.82-.57-1.25a11.25 11.25 0 004.75-3.35zM12 3.46a8.56 8.56 0 015.68 2.15 9.59 9.59 0 01-4.47 3.07 50.824 50.824 0 00-3.17-5A8.6 8.6 0 0112 3.46zm-3.64.83a59.533 59.533 0 013.18 4.92 30.942 30.942 0 01-7.9 1 8.51 8.51 0 014.72-5.92zM3.46 12v-.25c2.972.009 5.93-.399 8.79-1.21.25.46.46 1 .68 1.46l-.32.11a13.56 13.56 0 00-6.93 5.64A8.44 8.44 0 013.46 12zM12 20.54a8.46 8.46 0 01-5.25-1.79 11.67 11.67 0 016.71-5.32 33.81 33.81 0 011.82 6.47 8.2 8.2 0 01-3.28.64zm4.75-1.47A38.887 38.887 0 0015.11 13a12.75 12.75 0 015.32.36 8.44 8.44 0 01-3.68 5.71z" fill-rule="evenodd"/></symbol><symbol viewBox="0 0 24 24" id="facebook" xmlns="http://www.w3.org/2000/svg"><path d="M22 12c0-5.523-4.477-10-10-10S2 6.477 2 12c0 4.69 3.229 8.624 7.584 9.705v-6.65H7.522V12h2.062v-1.317c0-3.404 1.54-4.981 4.882-4.981.634 0 1.727.124 2.174.248v2.77a12.853 12.853 0 00-1.155-.037c-1.64 0-2.273.621-2.273 2.236v1.08h3.266l-.561 3.057h-2.705v6.87C18.163 21.328 22 17.112 22 12z"/></symbol><symbol viewBox="0 0 24 24" id="feedly" xmlns="http://www.w3.org/2000/svg"><path d="M12.22 16.44l1.13 1.14a.31.31 0 010 .45l-.84.83a.171.171 0 01-.14.06h-.74a.18.18 0 01-.14-.05l-.85-.87a.31.31 0 010-.45l1.12-1.13a.34.34 0 01.46 0zm0-4.66l1.13 1.14a.31.31 0 010 .45l-3.18 3.17a.171.171 0 01-.14.06H9.3a.2.2 0 01-.14-.05l-.85-.86a.311.311 0 010-.45l3.46-3.46a.34.34 0 01.46 0zm0-4.65l1.13 1.13a.318.318 0 010 .46l-5.51 5.5a.16.16 0 01-.14.06H7a.2.2 0 01-.14 0L6 13.37a.311.311 0 010-.45l5.79-5.79a.34.34 0 01.44 0zm1.42-3.29a2.34 2.34 0 00-3.3 0L2.68 11.5a2.32 2.32 0 000 3.29l5.53 5.53c.344.3.775.483 1.23.52h5.08a2.34 2.34 0 001.29-.54l5.51-5.51a2.32 2.32 0 000-3.29l-7.67-7.66z"/></symbol><symbol viewBox="0 0 24 24" id="github" xmlns="http://www.w3.org/2000/svg"><path clip-rule="evenodd" d="M12.008 2C6.474 2 2 6.507 2 12.083c0 4.457 2.867 8.23 6.843 9.565.498.1.68-.217.68-.484 0-.234-.017-1.035-.017-1.87-2.784.601-3.364-1.202-3.364-1.202-.447-1.169-1.11-1.469-1.11-1.469-.911-.618.067-.618.067-.618 1.01.067 1.54 1.035 1.54 1.035.895 1.536 2.337 1.102 2.917.835.083-.651.348-1.102.63-1.352-2.22-.234-4.557-1.102-4.557-4.975 0-1.101.397-2.003 1.027-2.704-.1-.25-.447-1.285.1-2.67 0 0 .845-.268 2.75 1.034a9.622 9.622 0 012.502-.334c.845 0 1.707.117 2.502.334 1.906-1.302 2.75-1.035 2.75-1.035.548 1.386.2 2.42.1 2.671.647.701 1.028 1.603 1.028 2.704 0 3.873-2.337 4.724-4.574 4.975.365.317.68.918.68 1.87 0 1.352-.017 2.437-.017 2.77 0 .268.183.585.68.485A10.075 10.075 0 0022 12.083C22.016 6.507 17.526 2 12.008 2z" fill-rule="evenodd"/></symbol><symbol viewBox="0 0 24 24" id="gnews" xmlns="http://www.w3.org/2000/svg"><path d="M20.4 5.05H3.6a.6.6 0 00-.6.6v12.7a.6.6 0 00.6.6h16.8a.6.6 0 00.6-.6V5.65a.6.6 0 00-.6-.6zm-7.64 3.71h5a.26.26 0 01.26.26v.8a.26.26 0 01-.26.26h-5zm-4.5 6.35a3.18 3.18 0 110-6.35 3 3 0 012.13.83l-.91.9A1.75 1.75 0 008.26 10a1.92 1.92 0 000 3.84A1.61 1.61 0 0010 12.6H8.26v-1.2h3a4.07 4.07 0 01.05.61 2.92 2.92 0 01-3.05 3.1zm9.79-.26a.26.26 0 01-.26.26h-5v-1.32h5a.26.26 0 01.26.26zm.8-2.52a.27.27 0 01-.27.27h-5.82v-1.33h5.82a.27.27 0 01.27.27z"/></symbol><symbol viewBox="0 0 24 24" id="hatebu" xmlns="http://www.w3.org/2000/svg"><path d="M13.86 12.53a3.552 3.552 0 00-2.49-1.12 4 4 0 002.07-1.14 3 3 0 00.65-2 3.62 3.62 0 00-.44-1.79 3.24 3.24 0 00-1.27-1.22 5.18 5.18 0 00-1.73-.57 25.641 25.641 0 00-3.54-.19H3v15h4.24c1.23.028 2.459-.029 3.68-.17a6 6 0 001.88-.59 3.35 3.35 0 001.45-1.41 4.26 4.26 0 00.51-2.12 3.85 3.85 0 00-.9-2.68zM6.8 7.82h.88a4.08 4.08 0 012 .34 1.32 1.32 0 01.52 1.19 1.23 1.23 0 01-.56 1.15 4.46 4.46 0 01-2.07.33H6.8v-3zm3.48 8.6a4.23 4.23 0 01-2 .36H6.8v-3.27h1.49a3.88 3.88 0 012 .38 1.5 1.5 0 01.55 1.32 1.22 1.22 0 01-.6 1.21zM21 17.6a1.9 1.9 0 11-3.8 0 1.9 1.9 0 013.8 0zM17.45 4.5h3.3v10h-3.3z"/></symbol><symbol viewBox="0 0 24 24" id="instagram" xmlns="http://www.w3.org/2000/svg"><path d="M12 4.59a30.002 30.002 0 013.67.1 4.49 4.49 0 011.66.31 3.17 3.17 0 011.06.63A2 2 0 0119 6.7a4.41 4.41 0 01.32 1.65c0 1 .11 1.27.11 3.67a26.325 26.325 0 01-.11 3.66c0 .569-.11 1.132-.32 1.66A3.22 3.22 0 0117.33 19a4.49 4.49 0 01-1.66.31c-.95 0-1.27.11-3.67.11-1.224.048-2.45.011-3.67-.11A4.49 4.49 0 016.67 19a3.2 3.2 0 01-1.06-.64 2.06 2.06 0 01-.61-1 4.5 4.5 0 01-.32-1.66c0-.95-.11-1.27-.11-3.66a26.481 26.481 0 01.11-3.67A4.41 4.41 0 015 6.7a3.17 3.17 0 01.63-1.06 2 2 0 011-.64 4.5 4.5 0 011.66-.32c.95 0 1.27-.1 3.67-.1zM12 3a26.481 26.481 0 00-3.67.11c-.742.07-1.475.21-2.19.42a3.78 3.78 0 00-1.55 1.06 4.13 4.13 0 00-1.06 1.55 5.79 5.79 0 00-.42 2.18C3.11 9.27 3 9.59 3 12a26.481 26.481 0 00.11 3.67 5.79 5.79 0 00.42 2.18 4.27 4.27 0 001.06 1.59c.44.44.968.78 1.55 1a5.88 5.88 0 002.19.42c.95 0 1.27.11 3.67.11 1.224.048 2.45.012 3.67-.11.742-.07 1.475-.21 2.19-.42a4.33 4.33 0 002.61-2.6 5.88 5.88 0 00.42-2.19c0-1 .11-1.27.11-3.66.048-1.224.012-2.45-.11-3.67a5.79 5.79 0 00-.42-2.18 3.78 3.78 0 00-1.06-1.55 4.13 4.13 0 00-1.55-1.06 5.88 5.88 0 00-2.19-.42A21.45 21.45 0 0012 3zm0 4.4a4.6 4.6 0 104.62 4.6A4.65 4.65 0 0012 7.4zm0 7.65a3 3 0 113-3 3.06 3.06 0 01-3 3zm3.78-7.86a1.06 1.06 0 102.11.21c.01-.07.01-.14 0-.21a1.06 1.06 0 00-2.11 0z"/></symbol><symbol viewBox="0 0 24 24" id="line" xmlns="http://www.w3.org/2000/svg"><path d="M22 10.59c0-4.48-4.49-8.12-10-8.12S2 6.11 2 10.59c0 4 3.56 7.37 8.36 8 .33.07.77.22.88.5a2.11 2.11 0 010 .9s-.12.71-.15.86-.2 1 .87.54a32.45 32.45 0 007.86-5.81A7.21 7.21 0 0022 10.59zM8.47 13a.2.2 0 01-.19.19H5.47a.21.21 0 01-.13-.05.19.19 0 010-.13V8.62a.2.2 0 01.2-.2h.7a.2.2 0 01.19.2v3.46h1.85a.2.2 0 01.19.19zm1.69 0a.19.19 0 01-.19.19h-.7a.2.2 0 01-.2-.19V8.62a.2.2 0 01.2-.2H10a.19.19 0 01.19.2zM15 13a.2.2 0 01-.19.19H14v-.05l-2-2.7V13a.2.2 0 01-.2.19H11a.2.2 0 01-.2-.19V8.62a.2.2 0 01.2-.2h.85l2 2.7v-2.5a.2.2 0 01.19-.2h.71a.2.2 0 01.19.2zm3.87-3.66a.19.19 0 01-.19.2h-1.92v.73h1.91a.19.19 0 01.19.2v.7a.18.18 0 01-.19.19h-1.91v.74h1.91a.19.19 0 01.19.19V13a.19.19 0 01-.19.19h-2.8a.24.24 0 01-.14-.05.16.16 0 01-.06-.13V8.62a.16.16 0 01.06-.13.22.22 0 01.14-.06h2.8a.19.19 0 01.19.2z"/></symbol><symbol viewBox="0 0 960 240" id="logo" xmlns="http://www.w3.org/2000/svg"><path d="M861.73 30.45C852.33 10.4 847.63.37 840 .37s-12.33 10-21.73 30.08L736 205.83c-7.21 15.37-10.81 23-7.28 28.61s12 5.56 29 5.56h164.52c17 0 25.47 0 29-5.56s-.07-13.24-7.27-28.61zM198.49 211.74c17.56 18.71 26.34 28.07 33.92 25.08S240 221 240 195.33V24.09c0-11.31 0-17-3.51-20.48S227.31.1 216 .1H37.76c-17 0-25.47 0-29 5.56S8.82 18.9 16 34.27l82.27 175.38c9.4 20 14.1 30.08 21.73 30.08s12.33-10 21.73-30.08l3.24-6.91c6.81-14.52 10.22-21.78 16.5-22.78s11.77 4.85 22.74 16.55zM702 171.83c0 18-4.9 32.48-15 43.58-14.6 16.39-36.7 24.49-66.5 24.49H546c-11.31 0-17 0-20.48-3.51s-3.52-9.17-3.52-20.48V24c0-11.31 0-17 3.52-20.48S534.69 0 546 0h67.3q66.45 0 66.5 62.47c0 12.7-2.5 23.19-7.2 31.59-4.67 8.17-2.15 22.52 5.85 27.47a40.68 40.68 0 0114 13.91c6.45 10.5 9.55 22.56 9.55 36.39zM470 24.09c0-11.31 0-17-3.51-20.48S457.31.1 446 .1H314c-11.31 0-17 0-20.48 3.51S290 12.78 290 24.09V216c0 11.31 0 17 3.52 20.48S302.69 240 314 240h132c11.31 0 17 0 20.49-3.51S470 227.32 470 216v-12c0-11.3 0-17-3.51-20.47S457.31 180 446 180h-21a30.17 30.17 0 01-5.34-.23 12 12 0 01-9.43-9.42A30.17 30.17 0 01410 165a30.17 30.17 0 01.23-5.34 12 12 0 019.43-9.42A30.17 30.17 0 01425 150h5c7.48 0 11.22 0 14-1.61a12 12 0 004.39-4.39c1.61-2.78 1.61-6.52 1.61-14v-20c0-7.47 0-11.21-1.61-14a12 12 0 00-4.39-4.33c-2.78-1.61-6.52-1.61-14-1.61h-5a30.17 30.17 0 01-5.34-.23 12 12 0 01-9.43-9.42 30.17 30.17 0 01-.23-5.34 30.17 30.17 0 01.23-5.34 12 12 0 019.43-9.42 28.93 28.93 0 015.34-.24h21c11.31 0 17 0 20.49-3.51S470 47.39 470 36.08z" fill-rule="evenodd"/></symbol><symbol viewBox="0 0 24 24" id="note" xmlns="http://www.w3.org/2000/svg"><path d="M5 5.09c2.7 0 6.39-.14 9.04-.07 3.55.09 4.9 1.64 4.94 5.46.05 2.17 0 8.36 0 8.36h-3.85c0-5.42.02-6.32 0-8.02-.05-1.51-.47-2.22-1.63-2.36-1.22-.14-4.65-.02-4.65-.02v10.41H5z"/></symbol><symbol viewBox="0 0 24 24" id="pinterest" xmlns="http://www.w3.org/2000/svg"><path d="M12 2a10 10 0 00-3.64 19.3 9.86 9.86 0 010-2.87c.18-.78 1.17-5 1.17-5A3.66 3.66 0 019.27 12c0-1.39.8-2.42 1.81-2.42a1.25 1.25 0 011.28 1.24c.005.06.005.12 0 .18a19.107 19.107 0 01-.84 3.33 1.458 1.458 0 001.12 1.74c.123.015.247.015.37 0 1.78 0 3.14-1.87 3.14-4.57a3.94 3.94 0 00-3.81-4.06H12a4.32 4.32 0 00-4.55 4.09 1.93 1.93 0 000 .24c0 .82.259 1.617.74 2.28a.31.31 0 01.06.29c-.07.31-.24 1-.28 1.13a.21.21 0 01-.33.13c-1.26-.58-2-2.4-2-3.87 0-3.15 2.29-6 6.62-6a5.86 5.86 0 016.16 5.56c.005.07.005.14 0 .21 0 3.45-2.18 6.22-5.19 6.22a2.671 2.671 0 01-2.29-1.15s-.51 1.9-.63 2.37A10.87 10.87 0 019 21.56c.973.292 1.984.44 3 .44a10 10 0 000-20z"/></symbol><symbol viewBox="0 0 24 24" id="pixiv" xmlns="http://www.w3.org/2000/svg"><path d="M19 5.68a8.35 8.35 0 00-5.8-1.95C7.13 3.73 3 8.45 3 8.45l1.14 1.84s.63.1.32-1A8.28 8.28 0 016.4 7.1v12.34c-.52.11-1.15.42-.73.84H9c.41-.42-.21-.73-.73-.84v-3a18.67 18.67 0 004.73 1 9.22 9.22 0 005.66-1.84A6 6 0 0021 10.74a5.811 5.811 0 00-2-5.06zm-1.83 8.84a6.31 6.31 0 01-4.24 1.63 11.43 11.43 0 01-4.54-.94V6a9 9 0 014.54-1.36 5.7 5.7 0 014.24 1.74 6.22 6.22 0 011.56 4.13 5 5 0 01-1.61 4z"/></symbol><symbol viewBox="0 0 24 24" id="pocket" xmlns="http://www.w3.org/2000/svg"><path d="M4.57 3.9A1.5 1.5 0 003 5.52v6c0 4.85 4.82 8.65 9 8.62 4.69 0 9-4 9-8.62v-6a1.528 1.528 0 00-1.62-1.62zm3.8 4.85L12 12.18l3.6-3.43c1.62-.68 2.33 1.17 1.66 1.71L12.55 15a1.57 1.57 0 01-1.13 0l-4.71-4.5c-.64-.64.19-2.5 1.66-1.75z"/></symbol><symbol viewBox="0 0 24 24" id="rss" xmlns="http://www.w3.org/2000/svg"><g><path d="M6.24 20a2.24 2.24 0 100-4.48 2.24 2.24 0 000 4.48z"/><path d="M4 4v2.91A13.09 13.09 0 0117.09 20H20A16 16 0 004 4zm0 5.82v2.91A7.28 7.28 0 0111.27 20h2.91A10.18 10.18 0 004 9.82z"/></g></symbol><symbol viewBox="0 0 24 24" id="x" xmlns="http://www.w3.org/2000/svg"><path d="M13.482 10.622L20.04 3h-1.554l-5.693 6.618L8.245 3H3l6.876 10.007L3 21h1.554l6.012-6.989L15.368 21h5.245l-7.131-10.378zm-2.128 2.474l-.697-.997-5.543-7.93H7.5l4.474 6.4.697.997 5.815 8.318h-2.387l-4.745-6.788z"/></symbol></svg>