<svg enable-background="new 0 0 1281 960" viewBox="0 0 1281 960" xmlns="http://www.w3.org/2000/svg"><path clip-rule="evenodd" d="m971.2 531.4c-2.7 44.1 6 107.7 7.4 151.9.1 1.3.5 1.4 1.2.3 4.6-1.4 9.3 4.5 11 8.3 4.2 9.2-2.1 18.8-8.6 25.4-.2.4-1.2-.1-.9-.4.1-.1.1-.2 0-.2-1.3 5.8.6 14.3 2.2 20.8.5 1.5.1 3.1.3 4.6 4.8-2 9.7-7.5 14.1-11.2 4.6-6.6 12.5-11.7 20.8-8.6 10.7 4 16.6 17.2 8.4 25.5-6.3 4.9-12.3 11.3-17.3 17.8-5.9 6.9-13.7 13.6-15.7 20.6-8.1 9.6-15.4 22.4-25.2 32.9.3.6 1 1 1.7.6 24-14.5 46.5-31.2 67.6-49.5 9.3-16.3 33.1-8.6 30.7 10.7-.5 7.9-6.4 9.8-11.4 13.8-11.4 10-22.7 21.8-29.8 35.5-8.5 9.7-13.6 21.5-22 30.2-5.1 3.9 3.1 1.5 4.6-.1 10.1-4.7 18.5-15 30-14.2 17.1 4 17.1 23.9 3.2 32.2-14.9 9.5-34.5 23-53.5 21-15.2-.8-23.8-14.7-22.1-28.9-1.2-6.5 8.5-17.7-.3-13.4-7 2.6-16.7 3.1-23.9.7-16.7-6.8-16.8-28.5-9-42.1.7-1 .5-1.2-.6-.8-15.6 8.4-42.7 5-42.2-17.4 0-3.7.1-7.5 1-10.9-.1-.5 0-.8.5-.9 2.7-2.4-2.4-1.1-3.4-2.2-115.8-27.2-233.3-52.8-349.7-77.6-39.1 141-218.9 196.7-329.4 100.7-142.8-122.3-48.5-355.4 136.1-354.4 0-1.5.1-3.1.1-4.6h1c5-69.8 8.6-139.9 12.6-210 3.2-26-.5-53.5 7-78.6 4.5-6.8 12.8-12.4 19.1-18.5 5.3-4.8 12.3-4.8 19.1-2.9 179 63.9 354.1 128.3 524.8 190 18.5 5.7 26.2 15.7 27.7 33.3 3 39.9 4.3 82.8 8 121.1 48.9-57.7 93.3-121 139.6-179.3 8-11.9 18.8-14.9 28.2-5.5 5.1 6.1 4.5 14.1-.5 20-53.7 71.5-110 141.9-162.5 214.3zm-575.5-185.7v1.1c0-.3 0-.7 0-1.1zm-.1 3.8c0-.9.1-1.8.1-2.7-0 .9-.1 1.8-.1 2.7z" fill-rule="evenodd" fill="#99999933" /></svg>
