<svg enable-background="new 0 0 1281 960" viewBox="0 0 1281 960" xmlns="http://www.w3.org/2000/svg"><path d="m494.2 318.1c-72.8-.1-124.1-84.8-98.4-151.7 34.9-96.1 166.4-100.2 211.9-11.4 123.5-4.8 228.3-9.8 343.6-14.4 13.9-.4 23.2 6.4 21.8 21.3-4 70.7-7.7 140.4-11.6 213.3-.3 2.3.8 6.1.9 7.4.1 2.7.4 5.4-.4 7.9-.6 1.9-.7 4.2-.3 6.7.1.6.4.8.9.8h13.2c1.1.1 2 1 3.1.9 6.5.3 10.3.7 11.4 1.2 26.5 11.7 53 23.4 79.5 35 .4.2.8.5 1 1 0 0 50.6 113.4 50.6 113.4.2.5.2.9 0 1.4 0 0-39.5 99.9-39.5 99.9-.1.3-.3.6-.6.8 0 0-79.8 69.1-79.8 69.1-.3.3-.8.4-1.2.4-35.2-1.1-70.5-2.2-105.8-3.2-6.2-.2-9.1-.4-13.8.7-4.9 1.1-8.5-2.1-11.5-5.3-.7-.8-.9-1.6-.5-2.6.2-.4 0-.7-.4-.7h-.4c-.4 0-.8.2-.9.6-8.9 18.8-17.5 37.2-26.3 55.3-1.8 3.8-3.9 6.5-6.1 8-7.8 5.6-16.9 5-25.8 3.1-170-36.8-338.7-73.2-506-109-2.5-.5-4.5-1.9-5.9-4.2-.2-.3-.9-2.3-2.1-6-.6-1.9-1.2-3.8-1.9-5.8-1-2.9 2.9-7.1 5.1-8.9 62-51.9 125.9-105.7 191.9-161.1 2.8-2.4 5.9-4.2 9.5-5.3-2.8-49.9-2.7-102.1-4.4-154.2-.4-1.1.4-4.3-.8-4.4zm20.8-159.8c5 1.2 10.4 0 15.4 0 .5 0 .5-.1.1-.4-73.1-33.8-120 79.5-39 101.1 2.8 1 .6-19.3.3-21.8-.2-14.4.1-28.1-.9-41.9 1.8-24.2-5.9-35.7 24.1-37z" fill="#99999933" /></svg>
